HIERARCHY
ROOT Hips
{
	OFFSET 0.000000 0.000000 0.000000 
	CHANNELS 6 Xposition Yposition Zposition Zrotation Yrotation Xrotation
	JOINT LeftUpLeg
	{
		OFFSET 1.363060 -1.794630 0.839290 
		CHANNELS 3 Zrotation Yrotation Xrotation
		JOINT LeftLeg
		{
			OFFSET 2.448110 -6.726130 0.000000 
			CHANNELS 3 Zrotation Yrotation Xrotation
			JOINT LeftFoot
			{
				OFFSET 2.562200 -7.039590 0.000000 
				CHANNELS 3 Zrotation Yrotation Xrotation
				JOINT LeftToeBase
				{
					OFFSET 0.157640 -0.433110 2.322550 
					CHANNELS 3 Zrotation Yrotation Xrotation
					End Site
					{
						OFFSET 0.000000 0.000000 0.000000 
					}
				}
			}
		}
	}
	JOINT RightUpLeg
	{
		OFFSET -1.305520 -1.794630 0.839290 
		CHANNELS 3 Zrotation Yrotation Xrotation
		JOINT RightLeg
		{
			OFFSET -2.542530 -6.985550 0.000000 
			CHANNELS 3 Zrotation Yrotation Xrotation
			JOINT RightFoot
			{
				OFFSET -2.568260 -7.056230 0.000000 
				CHANNELS 3 Zrotation Yrotation Xrotation
				JOINT RightToeBase
				{
					OFFSET -0.164730 -0.452590 2.363150 
					CHANNELS 3 Zrotation Yrotation Xrotation
					End Site
					{
						OFFSET 0.000000 0.000000 0.000000 
					}
				}
			}
		}
	}
	JOINT Spine
	{
		OFFSET 0.028270 2.035590 -0.193380 
		CHANNELS 3 Zrotation Yrotation Xrotation
		JOINT Spine1
		{
			OFFSET 0.056720 2.048850 -0.042750 
			CHANNELS 3 Zrotation Yrotation Xrotation
			JOINT Neck1
			{
				OFFSET -0.054170 1.746240 0.172020 
				CHANNELS 3 Zrotation Yrotation Xrotation
				JOINT Head
				{
					OFFSET 0.104070 1.761360 -0.123970 
					CHANNELS 3 Zrotation Yrotation Xrotation
					End Site
					{
						OFFSET 0.000000 0.000000 0.000000 
					}
				}
			}
			JOINT LeftArm
			{
				OFFSET 3.362410 1.200890 -0.311210 
				CHANNELS 3 Zrotation Yrotation Xrotation
				JOINT LeftForeArm
				{
					OFFSET 4.983000 -0.000000 -0.000000 
					CHANNELS 3 Zrotation Yrotation Xrotation
					JOINT LeftHand
					{
						OFFSET 3.483560 -0.000000 -0.000000 
						CHANNELS 3 Zrotation Yrotation Xrotation
						JOINT LeftHandIndex1
						{
							OFFSET 0.715260 -0.000000 -0.000000 
							CHANNELS 3 Zrotation Yrotation Xrotation
							End Site
							{
								OFFSET 0.000000 0.000000 0.000000 
							}
						}
					}
				}
			}
			JOINT RightArm
			{
				OFFSET -3.136600 1.374050 -0.404650 
				CHANNELS 3 Zrotation Yrotation Xrotation
				JOINT RightForeArm
				{
					OFFSET -5.241900 -0.000000 -0.000000 
					CHANNELS 3 Zrotation Yrotation Xrotation
					JOINT RightHand
					{
						OFFSET -3.444170 -0.000000 -0.000000 
						CHANNELS 3 Zrotation Yrotation Xrotation
						JOINT RightHandIndex1
						{
							OFFSET -0.622530 -0.000000 -0.000000 
							CHANNELS 3 Zrotation Yrotation Xrotation
							End Site
							{
								OFFSET 0.000000 0.000000 0.000000 
							}
						}
					}
				}
			}
		}
	}
}
MOTION
Frames: 11
Frame Time: 0.041667
13.798760 13.834348 16.056816 176.908589 -46.733747 178.953395 -4.539112 8.156553 -43.031672 25.648712 19.639035 113.347873 5.398492 -3.741371 3.041052 13.372000 -18.912400 -70.277000 -17.139220 -11.077748 -34.734446 -14.115087 -29.382103 60.186909 -17.608529 29.555597 43.173046 -5.914800 14.345200 -44.638600 38.820689 -40.845618 18.012492 -7.006073 43.055699 -14.791900 13.765523 4.378857 8.859193 -1.868200 2.169900 -4.996500 -8.761365 -34.072468 3.912496 114.485715 -17.706527 -93.501430 1.693657 -27.931072 38.799720 -7.125000 0.000000 0.000000 -55.859758 42.917625 136.042379 28.765033 3.321295 165.018080 10.647383 7.434572 -43.328965 7.125000 0.000000 0.000000 
13.806433 13.806922 16.056163 178.755640 -36.888612 -173.947016 -6.070808 11.145357 -45.106675 26.783550 23.484944 113.770146 5.255676 -4.263666 2.881140 13.384400 -18.916600 -70.315300 -18.317152 -10.783825 -35.159811 -14.419284 -28.724968 61.382427 -17.706519 29.787815 43.095457 -5.947100 14.376900 -44.769000 26.012776 -40.739695 21.986557 -5.076261 38.917099 -36.112073 15.436451 4.992545 9.433269 -1.881300 2.189500 -5.012000 38.505495 8.285540 -67.508306 95.410792 -84.764723 -94.663068 2.956062 -22.017042 36.500591 -7.125000 0.000000 0.000000 -43.399792 41.338560 -175.504280 -143.580976 48.194677 -9.919111 24.411603 2.445228 -42.493259 7.125000 0.000000 0.000000 
13.813126 13.778844 16.056326 175.251060 -35.671984 -174.850937 -7.003605 11.185467 -43.856826 26.853890 23.631803 113.741148 5.321529 -4.425958 2.807413 13.340200 -18.901600 -70.178800 -18.414311 -10.146645 -34.109359 -14.779378 -28.104528 61.895401 -17.830070 30.313260 43.154790 -5.842900 14.274300 -44.347900 19.188872 -42.879999 9.254228 -4.934424 43.401946 -34.769596 15.296805 5.053273 11.320761 -1.826600 2.221500 -5.100100 38.230710 17.608351 -81.961166 -71.361461 -52.236315 82.197377 2.607254 -18.700789 32.974203 -7.125000 0.000000 0.000000 -56.341965 44.669580 -150.144690 -43.967319 12.588057 -8.542639 22.096921 -1.461033 -41.541322 7.125000 0.000000 0.000000 
13.818513 13.754520 16.055020 172.511383 -33.859232 -176.316804 -7.938139 11.578499 -42.469823 27.057270 23.905645 113.648693 5.418929 -4.633133 2.687639 13.326300 -18.896800 -70.136000 -18.218644 -9.507485 -32.598362 -15.046640 -27.428188 62.523833 -17.845935 30.892082 43.379295 -5.545700 13.973100 -43.129900 10.933482 -43.469154 0.009038 -8.718876 42.538151 -28.442506 15.918163 5.240945 12.016193 -1.746600 2.242500 -5.225500 36.419306 15.362895 -72.409464 -39.441372 -29.541969 79.534113 3.081732 -17.271482 29.929501 -7.125000 0.000000 0.000000 -76.972092 48.810402 -138.201938 -47.499838 7.332385 -8.409379 19.772151 -1.220990 -41.622437 7.125000 0.000000 0.000000 
13.823737 13.728400 16.052245 169.208569 -33.948083 -177.767542 -8.871065 11.330568 -41.025745 27.129658 23.816081 113.517702 5.069111 -3.938335 2.480886 13.427000 -18.931000 -70.446700 -18.073487 -9.348807 -31.134082 -15.347634 -26.907841 63.143564 -17.854514 30.839133 43.160485 -5.630900 14.060900 -43.481800 1.252255 -39.726327 -12.202300 -9.002864 42.296298 -22.177541 16.760169 5.473123 13.010516 -1.780000 2.205500 -5.293500 25.405188 8.268474 -59.289332 -27.345275 -17.862804 78.892061 2.672789 -15.463443 28.719740 -7.125000 0.000000 0.000000 -75.718077 55.838860 -144.007947 -35.187960 15.122992 -8.699827 17.762757 -0.626752 -42.108354 7.125000 0.000000 0.000000 
13.832389 13.700484 16.047021 164.406287 -33.559879 179.307604 -10.317787 10.788163 -38.689296 27.179013 23.648574 113.224098 4.472497 -2.757836 2.189445 13.580600 -18.981900 -70.919300 -17.741832 -8.896535 -28.628982 -15.765802 -26.168830 63.942026 -17.894384 30.658210 42.774392 -5.828500 14.260100 -44.289600 -19.632258 -33.785748 -30.603753 -8.916865 33.629847 4.328890 18.033665 6.247790 12.124485 -1.986600 2.171100 -5.314600 -0.790588 0.517000 -49.284257 -25.451758 -25.055569 78.934628 2.362481 -14.226949 28.272126 -7.125000 0.000000 0.000000 -73.558979 57.299124 -167.045616 -31.862151 44.882710 -10.232637 16.699323 1.732842 -43.600701 7.125000 0.000000 0.000000 
13.845123 13.675507 16.040002 162.247328 -33.767976 177.719257 -11.248145 10.117304 -37.583594 27.335576 23.634314 113.182418 4.323655 -2.424274 1.924553 13.633100 -18.998900 -71.080600 -17.569708 -9.090065 -26.978801 -15.842145 -25.970462 64.555747 -17.867739 30.964740 42.628970 -5.681000 14.111900 -43.687500 -34.871083 -29.335560 -39.494367 -8.881822 25.422282 28.490041 18.223017 7.134795 9.390806 -2.163500 2.165600 -5.383700 -20.738303 7.780044 -48.077076 -25.071458 -42.037473 78.934874 3.013741 -15.019972 27.856140 -7.125000 0.000000 0.000000 -63.899874 54.550915 168.702107 124.379171 78.713198 167.717005 20.445366 5.637308 -45.850430 7.125000 0.000000 0.000000 
13.857856 13.650693 16.031186 163.085840 -35.339966 177.871592 -11.600545 9.437855 -37.932357 27.634933 23.753153 113.433649 4.732978 -3.117984 1.705992 13.560400 -18.975300 -70.857400 -17.518656 -10.149885 -26.524094 -15.668543 -26.423844 65.095624 -17.771718 31.130535 42.206650 -5.637100 14.067200 -43.507400 -32.772604 -32.765240 -32.387877 -19.267307 23.140124 32.300026 18.220982 7.839291 6.468511 -2.167600 2.211000 -5.489100 -26.252775 19.086643 -51.549696 -24.050326 -49.706011 79.021680 4.693680 -17.498644 27.366133 -7.125000 0.000000 0.000000 -44.688291 41.461490 163.574065 129.720158 29.484148 167.830088 16.557959 7.799536 -45.713647 7.125000 0.000000 0.000000 
13.868304 13.626859 16.022044 162.657733 -35.615107 178.447960 -12.026738 9.375382 -38.034462 27.943046 24.055523 113.630662 5.132965 -3.850695 1.623166 13.477500 -18.947800 -70.602200 -17.464369 -10.383312 -26.257193 -15.745535 -26.486433 65.626017 -17.745209 30.783586 41.598494 -5.938200 14.368200 -44.733200 -30.344106 -35.543684 -30.247855 -18.042721 27.218924 23.700673 17.447548 8.113920 5.497379 -2.210900 2.198400 -5.530400 -26.467653 20.942656 -50.699604 -25.815956 -49.286322 79.401129 5.313959 -18.122023 26.835714 -7.125000 0.000000 0.000000 -46.076057 42.978510 159.082330 72.773970 26.021404 168.057482 12.942390 8.086439 -45.441105 7.125000 0.000000 0.000000 
13.876630 13.609881 16.016494 162.288918 -34.672380 179.517200 -12.115411 9.325397 -38.389635 28.002088 24.458559 113.852534 4.936013 -3.602779 1.615216 13.469200 -18.945100 -70.576700 -17.629620 -9.964368 -26.689888 -15.901071 -26.308924 65.873075 -17.778597 30.830429 41.474920 -6.031300 14.458600 -45.107200 -26.984887 -35.221759 -33.607468 -8.714894 30.613035 17.814646 16.091868 7.762003 6.163284 -2.233000 2.179300 -5.549200 -25.470512 18.623350 -49.552386 -25.887509 -41.227835 79.921877 5.344654 -18.137417 26.572173 -7.125000 0.000000 0.000000 -43.937969 37.548025 148.076967 26.216263 23.832159 167.376319 8.721412 8.892293 -45.643827 7.125000 0.000000 0.000000 
13.881037 13.600576 16.011433 161.715234 -34.342794 -179.865231 -11.868657 8.397214 -38.762549 27.725891 24.528082 114.004531 4.451589 -2.830550 1.716999 13.464400 -18.943500 -70.562000 -17.975061 -9.545255 -27.430567 -16.051887 -26.077729 65.794573 -17.865309 31.599826 41.845244 -5.755900 14.187500 -43.993900 -24.774372 -35.006153 -35.373648 -4.528609 32.115468 13.450521 16.175002 7.382519 8.213658 -2.263700 2.153500 -5.605000 -20.814510 10.658785 -47.949676 -26.612244 -31.005414 79.892465 4.167161 -15.641817 25.874481 -7.125000 0.000000 0.000000 -41.355774 33.519295 149.570497 8.258244 22.430698 166.481817 5.082298 9.220330 -45.830125 7.125000 0.000000 0.000000 
